<svg id="Layer_1" data-name="Layer 1" xmlns="http://www.w3.org/2000/svg" viewBox="0 0 2000 2000"><defs><style>.cls-1{fill:#f19722;}.cls-2{fill:#2c8693;}.cls-3{fill:none;}</style></defs><title>Xploryo </title><rect class="cls-1" x="385.88" y="448.47" width="49.27" height="826.69" rx="17.2" transform="translate(729.63 -37.85) rotate(45)"/><rect class="cls-2" x="207.67" y="521.37" width="49.27" height="325.49" rx="17.06" transform="translate(-415.7 364.63) rotate(-45)"/><rect class="cls-2" x="558.49" y="866.94" width="49.27" height="334.9" rx="17.06" transform="translate(-560.63 715.29) rotate(-45)"/><path class="cls-1" d="M810.14,960.52h-.83v129.82h-34V776.79h34v37.75h.83q25.07-42.78,73.33-42.79,41,0,64,28.84t23,77.29q0,53.91-25.9,86.31t-70.84,32.4Q832.51,996.59,810.14,960.52Zm-.83-86.62v30q0,26.64,17.09,45.2t43.4,18.56q30.87,0,48.37-23.91t17.51-66.49q0-35.87-16.37-56.21T875,800.7q-29.62,0-47.65,20.87T809.31,873.9Z"/><path class="cls-1" d="M1058.73,991.56h-34v-318h34Z"/><path class="cls-1" d="M1216.17,996.59q-47,0-75.1-30.1T1113,886.69q0-54.11,29.21-84.52t78.93-30.42q47.43,0,74.06,29.58t26.62,82q0,51.39-28.69,82.33T1216.17,996.59Zm2.48-195.89q-32.73,0-51.78,22.55t-19.06,62.18q0,38.18,19.26,60.2t51.58,22q32.94,0,50.65-21.61T1287,884.59q0-40.26-17.72-62.08T1218.65,800.7Z"/><path class="cls-1" d="M1486.72,811.6q-8.91-6.92-25.69-6.92-21.75,0-36.36,20.77t-14.6,56.63V991.56h-34V776.79h34V821h.83q7.24-22.65,22.16-35.34T1466.42,773q13.24,0,20.3,2.94Z"/><path class="cls-1" d="M1709.41,776.79,1611.84,1026q-26.1,66.71-73.33,66.7-13.26,0-22.17-2.73v-30.83a62.22,62.22,0,0,0,20.09,3.78q25.69,0,38.54-31l17-40.69-82.86-214.35h37.7l57.38,165.27q1,3.15,4.36,16.36h1.24q1-5,4.14-15.94l60.28-165.69Z"/><path class="cls-1" d="M1832.46,996.59q-47,0-75.09-30.1t-28.07-79.8q0-54.11,29.21-84.52t78.92-30.42q47.44,0,74.06,29.58t26.62,82q0,51.39-28.69,82.33T1832.46,996.59ZM1835,800.7q-32.73,0-51.79,22.55t-19.06,62.18q0,38.18,19.27,60.2t51.58,22q32.94,0,50.65-21.61t17.71-61.45q0-40.26-17.71-62.08T1835,800.7Z"/><path class="cls-3" d="M809.31,903.89q0,26.64,17.09,45.2t43.4,18.56q25.29,0,41.61-16.07L819,833.55q-9.65,17.34-9.66,40.35Z"/><path class="cls-3" d="M918.17,943.74q17.51-23.91,17.51-66.49,0-35.87-16.37-56.21T875,800.7q-29.62,0-47.65,20.87a71.12,71.12,0,0,0-8.36,12l92.44,118A63.12,63.12,0,0,0,918.17,943.74Z"/><path class="cls-3" d="M1147.81,885.43q0,38.18,19.26,60.2t51.58,22q23.89,0,39.77-11.39l-87.05-137.82a64.52,64.52,0,0,0-4.5,4.81Q1147.81,845.8,1147.81,885.43Z"/><path class="cls-3" d="M1269.3,946.05q17.71-21.6,17.72-61.46,0-40.26-17.72-62.08t-50.65-21.81q-29,0-47.28,17.74l87.05,137.82A57,57,0,0,0,1269.3,946.05Z"/><path class="cls-3" d="M1885.6,946.05q17.72-21.6,17.71-61.46,0-40.26-17.71-62.08T1835,800.7q-29.31,0-47.64,18.09l94.31,131.61C1883,949,1884.33,947.59,1885.6,946.05Z"/><path class="cls-3" d="M1764.1,885.43q0,38.18,19.27,60.2t51.58,22q29.41,0,46.67-17.25l-94.31-131.61c-1.43,1.41-2.82,2.88-4.15,4.46Q1764.1,845.8,1764.1,885.43Z"/><path class="cls-2" d="M869.8,967.65q-26.31,0-43.4-18.56t-17.09-45.2v-30q0-23,9.66-40.35l-43.63-55.71v312.5h34V960.52h.83q22.38,36.08,63.6,36.07,34.59,0,57.88-19.21l-20.21-25.8Q895.09,967.65,869.8,967.65Z"/><path class="cls-2" d="M1218.65,967.65q-32.31,0-51.58-22t-19.26-60.2q0-39.64,19.06-62.18a64.52,64.52,0,0,1,4.5-4.81l-17-26.94a95.51,95.51,0,0,0-12.15,10.67Q1113,832.58,1113,886.69q0,49.71,28.07,79.8t75.1,30.1q33.87,0,58.09-15.25l-15.84-25.08Q1242.53,967.63,1218.65,967.65Z"/><polygon class="cls-2" points="1376.35 781.46 1406.55 966.48 1377.29 776.79 1376.1 776.79 1376.1 991.56 1410.07 991.56 1410.07 989.27 1406.55 966.48 1376.35 781.46"/><polygon class="cls-2" points="1410.07 989.27 1410.07 988.01 1406.55 966.48 1410.07 989.27"/><path class="cls-3" d="M1835,800.7q-29.31,0-47.64,18.09c-1.43,1.41-2.82,2.88-4.15,4.46q-19.07,22.54-19.06,62.18,0,38.18,19.27,60.2t51.58,22q29.41,0,46.67-17.25c1.38-1.37,2.71-2.81,4-4.35q17.72-21.6,17.71-61.46,0-40.26-17.71-62.08T1835,800.7Z"/><polygon class="cls-2" points="1024.76 675.77 1024.76 991.56 1058.34 991.56 1058.46 991.56 1024.76 675.77"/><line class="cls-3" x1="1019.72" y1="659.72" x2="1061.25" y2="1022.08"/><path class="cls-3" d="M1609.77,958.42c.06-.3.13-.63.21-1l-3.15-5.7c.51,2,1.07,4.16,1.69,6.67Z"/><path class="cls-2" d="M1609.77,958.42h-1.25c-.62-2.51-1.18-4.71-1.69-6.67l-96.46-175h-1.28L1592,991.14l-17,40.69q-12.85,31-38.54,31a62.22,62.22,0,0,1-20.09-3.78v30.83q8.91,2.73,22.17,2.73,47.22,0,73.33-66.7l14.91-38.07L1610,957.45C1609.9,957.79,1609.83,958.12,1609.77,958.42Z"/><path class="cls-3" d="M1783.16,823.25q-19.07,22.54-19.06,62.18,0,38.18,19.27,60.2t51.58,22q19.52,0,33.67-7.62L1789.9,816.39c-.88.77-1.74,1.57-2.59,2.4C1785.88,820.2,1784.49,821.67,1783.16,823.25Z"/><path class="cls-3" d="M1881.62,950.4c1.38-1.37,2.71-2.81,4-4.35q17.72-21.6,17.71-61.46,0-40.26-17.71-62.08T1835,800.7q-27.29,0-45,15.69L1868.62,960A54.82,54.82,0,0,0,1881.62,950.4Z"/><path class="cls-2" d="M1835,967.65q-32.33,0-51.58-22t-19.27-60.2q0-39.64,19.06-62.18c1.33-1.58,2.72-3,4.15-4.46.85-.83,1.71-1.63,2.59-2.4l-15.17-27.69c-2,1.34-4,2.74-5.94,4.24a94,94,0,0,0-10.28,9.23q-29.22,30.41-29.21,84.52,0,49.71,28.07,79.8t75.09,30.1q28.56,0,50.25-10.86L1868.62,960Q1854.46,967.64,1835,967.65Z"/></svg>