<svg id="Layer_1" data-name="Layer 1" xmlns="http://www.w3.org/2000/svg" viewBox="0 0 2000 2000"><defs><style>.cls-1{fill:#f19722;}.cls-2{fill:#2c8693;}</style></defs><title>Xploryo </title><rect class="cls-1" x="315.93" y="484.92" width="47.7" height="800.37" rx="17.2" transform="translate(725.38 18.98) rotate(45)"/><rect class="cls-2" x="143.4" y="555.49" width="47.7" height="315.13" rx="17.06" transform="translate(-455.22 327.11) rotate(-45)"/><rect class="cls-2" x="483.05" y="890.07" width="47.7" height="324.23" rx="17.06" transform="translate(-595.54 666.61) rotate(-45)"/><path d="M726.69,980.66h-.81v125.69H693V802.78h32.89v36.55h.81q24.25-41.42,71-41.42,39.7,0,62,27.92t22.26,74.83q0,52.19-25.07,83.55t-68.59,31.38Q748.35,1015.59,726.69,980.66Zm-.81-83.86v29q0,25.78,16.55,43.75t42,18q29.88,0,46.83-23.15t17-64.37q0-34.72-15.85-54.42t-42.92-19.7q-28.68,0-46.13,20.21T725.88,896.8Z"/><path d="M967.36,1010.71H934.47V702.88h32.89Z"/><path d="M1119.79,1015.59q-45.54,0-72.71-29.14t-27.17-77.26q0-52.4,28.28-81.84t76.41-29.44q45.93,0,71.7,28.63t25.77,79.4q0,49.74-27.77,79.7T1119.79,1015.59Zm2.4-189.66q-31.68,0-50.14,21.83T1053.6,908q0,37,18.65,58.27t49.94,21.33q31.89,0,49-20.92t17.15-59.5q0-39-17.15-60.1T1122.19,825.93Z"/><path d="M1381.72,836.49q-8.62-6.71-24.87-6.7-21.06,0-35.2,20.1t-14.14,54.83v106h-32.89V802.78h32.89v42.85h.81q7-21.93,21.46-34.22t32.29-12.28q12.83,0,19.65,2.84Z"/><path d="M1597.33,802.78,1502.86,1044q-25.27,64.56-71,64.57-12.84,0-21.46-2.64V1076.1a60.21,60.21,0,0,0,19.46,3.65q24.86,0,37.3-30l16.45-39.39-80.23-207.53h36.5l55.56,160q1,3,4.21,15.84h1.21q1-4.87,4-15.43l58.36-160.42Z"/><path d="M1716.46,1015.59q-45.53,0-72.71-29.14t-27.17-77.26q0-52.4,28.28-81.84t76.41-29.44q45.93,0,71.7,28.63t25.78,79.4q0,49.74-27.78,79.7T1716.46,1015.59Zm2.41-189.66q-31.69,0-50.14,21.83T1650.27,908q0,37,18.66,58.27t49.94,21.33q31.89,0,49-20.92t17.15-59.5q0-39-17.15-60.1T1718.87,825.93Z"/></svg>